<svg xmlns="http://www.w3.org/2000/svg" viewBox="0 0 640 800" width="640" height="800">
  <defs>
    <linearGradient id="bg" x1="0" y1="0" x2="0" y2="1">
      <stop offset="0" stop-color="#14140f"/>
      <stop offset="1" stop-color="#26261c"/>
    </linearGradient>
    <linearGradient id="sig" x1="0" y1="0" x2="1" y2="1">
      <stop offset="0" stop-color="#1fe089"/>
      <stop offset="1" stop-color="#0a7a4f"/>
    </linearGradient>
  </defs>
  <rect width="640" height="800" fill="url(#bg)"/>
  <!-- soft glow -->
  <circle cx="320" cy="300" r="220" fill="#1fe089" opacity="0.10"/>
  <!-- shoulders -->
  <path d="M120 800 C120 640 210 560 320 560 C430 560 520 640 520 800 Z" fill="#3a3a2c"/>
  <!-- head -->
  <circle cx="320" cy="360" r="150" fill="#4a4a38"/>
  <!-- hair -->
  <path d="M180 340 C180 250 250 200 320 200 C390 200 460 250 460 340 C460 300 400 280 320 280 C240 280 180 300 180 340 Z" fill="#2c2c20"/>
  <!-- initials badge -->
  <circle cx="320" cy="360" r="70" fill="url(#sig)" opacity="0.92"/>
  <text x="320" y="392" font-family="Georgia, serif" font-size="76" font-weight="700" fill="#0b0b08" text-anchor="middle">AS</text>
  <text x="320" y="700" font-family="'JetBrains Mono', monospace" font-size="20" letter-spacing="3" fill="#8a8a7a" text-anchor="middle">PLACEHOLDER · SWAP HEADSHOT</text>
</svg>
